#!OML:ASF H:\Swim 2\Project 1\Capture day 1\Session 1\male.ASF
:FULLY-SPECIFIED
:DEGREES
1243
root 7.3949 9.10173 10.4079 92.1187 1.53624 4.70012
lowerback -2.99582 1.22168 -2.68901
upperback 0.695771 1.70308 1.37341
thorax 2.2749 0.803856 3.00377
lowerneck -12.4547 -14.6219 -5.96398
upperneck 45.5897 -15.604 -7.9122
head 19.392 -7.50278 -5.56991
rclavicle -6.36111e-015 -1.93815e-014
rhumerus 36.8837 30.1263 -5.85154
rradius 102.406
rwrist -49.3164
rhand -41.724 7.75125
rfingers 7.12502
rthumb -14.6292 -21.7127
lclavicle -6.36111e-015 -1.93815e-014
lhumerus 62.1913 -29.7582 5.17073
lradius 104.605
lwrist 63.1403
lhand -52.2462 -15.0792
lfingers 7.12502
lthumb -24.7435 13.3405
rfemur -57.5734 6.52503 17.6995
rtibia 57.9587
rfoot 17.3981 11.3172
rtoes -38.9147
lfemur -59.724 -11.6755 -19.5713
ltibia 63.9685
lfoot 24.3481 -6.11165
ltoes 17.2966
1244
root 7.39439 9.10363 10.4139 92.0448 1.55124 4.69563
lowerback -2.85407 1.21552 -2.62811
upperback 0.727768 1.68997 1.32632
thorax 2.23217 0.798626 2.91699
lowerneck -12.2725 -14.5891 -6.47711
upperneck 45.5568 -15.6119 -7.39551
head 19.4865 -7.51546 -5.25423
rclavicle 4.77083e-015 -9.69075e-015
rhumerus 37.1974 30.4629 -5.59652
rradius 103.023
rwrist -48.8401
rhand -42.0792 7.43501
rfingers 7.12502
rthumb -14.9715 -22.0038
lclavicle 4.77083e-015 -9.69075e-015
lhumerus 62.5358 -29.7692 4.75654
lradius 105.255
lwrist 63.0913
lhand -52.431 -15.1519
lfingers 7.12502
lthumb -24.9206 13.2434
rfemur -57.9287 6.177 17.9621
rtibia 58.9592
rfoot 17.5547 11.581
rtoes -38.9421
lfemur -60.0877 -11.3647 -19.7692
ltibia 64.8166
lfoot 24.7145 -6.25614
ltoes 18.4123
1245
root 7.39407 9.10552 10.4195 91.9791 1.55646 4.69003
lowerback -2.7252 1.21328 -2.588
upperback 0.757628 1.68321 1.28351
thorax 2.19329 0.796215 2.84699
lowerneck -12.0909 -14.6239 -6.83489
upperneck 45.5417 -15.6751 -7.09826
head 19.5308 -7.55482 -5.06672
rclavicle -3.18055e-015 1.90336e-014
rhumerus 37.4936 30.7308 -5.35802
rradius 103.608
rwrist -48.3039
rhand -42.5115 7.09125
rfingers 7.12502
rthumb -15.3879 -22.3161
lclavicle -3.18055e-015 1.90336e-014
lhumerus 62.8669 -29.7773 4.37359
lradius 105.857
lwrist 62.9756
lhand -52.7157 -15.442
lfingers 7.12502
lthumb -25.1934 12.9152
rfemur -58.3193 5.83818 18.1988
rtibia 59.9742
rfoot 17.6789 11.8412
rtoes -38.9969
lfemur -60.4577 -11.0412 -19.9897
ltibia 65.6845
lfoot 25.0193 -6.37389
ltoes 19.5335
1246
root 7.39384 9.10757 10.4248 91.9215 1.55089 4.68433
lowerback -2.60737 1.21136 -2.56794
upperback 0.784339 1.67785 1.2436
thorax 2.15662 0.794227 2.79162
lowerneck -11.9078 -14.7394 -7.0109
upperneck 45.5493 -15.8026 -7.05977
head 19.5173 -7.62488 -5.03073
rclavicle 7.95139e-015 -3.03147e-015
rhumerus 37.7849 30.9338 -5.13649
rradius 104.147
rwrist -47.7765
rhand -43.0169 6.78553
rfingers 7.12502
rthumb -15.8746 -22.5838
lclavicle 7.95139e-015 -3.03147e-015
lhumerus 63.1745 -29.7831 4.01638
lradius 106.405
lwrist 62.7828
lhand -53.0765 -15.811
lfingers 7.12502
lthumb -25.5391 12.4971
rfemur -58.7422 5.50282 18.4126
rtibia 60.9987
rfoot 17.784 12.0898
rtoes -39.0512
lfemur -60.8335 -10.7083 -20.2299
ltibia 66.5687
lfoot 25.2809 -6.46934
ltoes 20.6732
1247
root 7.39368 9.10975 10.43 91.8618 1.53996 4.67628
lowerback -2.48965 1.20919 -2.55865
upperback 0.810573 1.67251 1.20635
thorax 2.11915 0.792103 2.74507
lowerneck -11.7256 -14.9097 -7.05316
upperneck 45.5707 -15.9728 -7.20554
head 19.4603 -7.71522 -5.10189
rclavicle 2.70347e-014 -4.27387e-015
rhumerus 38.07 31.075 -4.94363
rradius 104.641
rwrist -47.3521
rhand -43.5613 6.50843
rfingers 7.12502
rthumb -16.3988 -22.8184
lclavicle 2.70347e-014 -4.27387e-015
lhumerus 63.4506 -29.7855 3.68644
lradius 106.892
lwrist 62.5164
lhand -53.5197 -16.416
lfingers 7.12502
lthumb -25.9635 11.8306
rfemur -59.1804 5.16967 18.6143
rtibia 62.0269
rfoot 17.9204 12.3108
rtoes -39.12
lfemur -61.2036 -10.3672 -20.4821
ltibia 67.4686
lfoot 25.5363 -6.55855
ltoes 21.9247
1248
root 7.39366 9.11247 10.4357 91.7976 1.52654 4.667
lowerback -2.36937 1.2061 -2.55773
upperback 0.8357 1.66604 1.17375
thorax 2.07879 0.789339 2.70794
lowerneck -11.5453 -15.1207 -6.99377
upperneck 45.6065 -16.1704 -7.49808
head 19.3712 -7.81987 -5.2558
rclavicle -2.38542e-014 1.27719e-014
rhumerus 38.3488 31.1606 -4.77962
rradius 105.093
rwrist -47.0995
rhand -44.1171 6.24665
rfingers 7.12502
rthumb -16.9339 -23.0351
lclavicle -2.38542e-014 1.27719e-014
lhumerus 63.6858 -29.7822 3.39343
lradius 107.316
lwrist 62.1909
lhand -53.9712 -16.9404
lfingers 7.12502
lthumb -26.3958 11.2421
rfemur -59.6382 4.83139 18.8133
rtibia 63.0577
rfoot 18.2107 12.5021
rtoes -39.3085
lfemur -61.5622 -10.0191 -20.7414
ltibia 68.3792
lfoot 25.7671 -6.64094
ltoes 23.1608
1249
root 7.39381 9.1155 10.4412 91.7271 1.51135 4.65845
lowerback -2.24705 1.2018 -2.56161
upperback 0.8612 1.65796 1.14535
thorax 2.03752 0.785686 2.67775
lowerneck -11.382 -15.2992 -6.96459
upperneck 45.6426 -16.3291 -7.7484
head 19.2994 -7.90831 -5.38146
rclavicle 4.77083e-015 2.5345e-015
rhumerus 38.6152 31.1994 -4.64949
rradius 105.501
rwrist -47.0357
rhand -44.6551 6.01981
rfingers 7.12502
rthumb -17.4518 -23.2168
lclavicle 4.77083e-015 2.5345e-015
lhumerus 63.8713 -29.7679 3.15014
lradius 107.68
lwrist 61.8332
lhand -54.3838 -17.3158
lfingers 7.12502
lthumb -26.7907 10.8068
rfemur -60.102 4.48584 19.0089
rtibia 64.0856
rfoot 18.6336 12.6437
rtoes -39.5536
lfemur -61.9142 -9.66951 -21.0055
ltibia 69.3058
lfoot 25.9517 -6.73617
ltoes 24.2702
1250
root 7.3942 9.11917 10.4473 91.6463 1.49811 4.64891
lowerback -2.12036 1.19709 -2.5673
upperback 0.888201 1.64913 1.12295
thorax 1.99516 0.781593 2.6547
lowerneck -11.2346 -15.4297 -7.00431
upperneck 45.6764 -16.4376 -7.9036
head 19.2593 -7.97474 -5.44979
rclavicle -1.90833e-014 -1.92821e-014
rhumerus 38.8644 31.2008 -4.55451
rradius 105.872
rwrist -47.1548
rhand -45.0985 5.74268
rfingers 7.12502
rthumb -17.8784 -23.4555
lclavicle -1.90833e-014 -1.92821e-014
lhumerus 63.9958 -29.7401 2.96988
lradius 107.989
lwrist 61.4753
lhand -54.7147 -17.4542
lfingers 7.12502
lthumb -27.1072 10.6195
rfemur -60.575 4.12876 19.2106
rtibia 65.1111
rfoot 19.1481 12.7534
rtoes -39.8608
lfemur -62.2499 -9.31653 -21.2692
ltibia 70.2438
lfoot 26.078 -6.84727
ltoes 25.2271
1251
root 7.39476 9.12317 10.4534 91.5468 1.48572 4.63525
lowerback -1.98424 1.19355 -2.57676
upperback 0.919723 1.6416 1.10664
thorax 1.95178 0.778008 2.63995
lowerneck -11.0994 -15.5024 -7.14392
upperneck 45.7056 -16.4905 -7.92201
head 19.2612 -8.01599 -5.43827
rclavicle -6.20208e-014 1.72446e-014
rhumerus 39.0933 31.1784 -4.49032
rradius 106.208
rwrist -47.3746
rhand -45.4804 5.41069
rfingers 7.12502
rthumb -18.2459 -23.7536
lclavicle -6.20208e-014 1.72446e-014
lhumerus 64.0519 -29.6981 2.86555
lradius 108.254
lwrist 61.1392
lhand -54.9539 -17.3132
lfingers 7.12502
lthumb -27.3361 10.7247
rfemur -61.0379 3.76338 19.4154
rtibia 66.1294
rfoot 19.6737 12.8312
rtoes -40.1489
lfemur -62.5645 -8.95753 -21.5354
ltibia 71.1997
lfoot 26.1109 -6.97891
ltoes 25.9376
1252
root 7.39561 9.1276 10.46 91.4344 1.47479 4.6189
lowerback -1.84691 1.19005 -2.58697
upperback 0.955509 1.63398 1.09529
thorax 1.91194 0.77422 2.63079
lowerneck -10.978 -15.5301 -7.35887
upperneck 45.7374 -16.5011 -7.83422
head 19.3009 -8.0373 -5.36683
rclavicle 2.70347e-014 4.52235e-015
rhumerus 39.3035 31.1481 -4.44078
rradius 106.518
rwrist -47.6524
rhand -45.7872 5.01776
rfingers 7.12502
rthumb -18.541 -24.1186
lclavicle 2.70347e-014 4.52235e-015
lhumerus 64.0308 -29.6436 2.85179
lradius 108.485
lwrist 60.8464
lhand -55.1125 -17.0329
lfingers 7.12502
lthumb -27.4877 10.9809
rfemur -61.5044 3.3823 19.6278
rtibia 67.1414
rfoot 20.1118 12.9111
rtoes -40.3963
lfemur -62.8607 -8.59564 -21.8005
ltibia 72.1722
lfoot 26.0201 -7.11418
ltoes 26.395
1253
root 7.39662 9.13206 10.4661 91.3057 1.46807 4.59687
lowerback -1.70451 1.18813 -2.59433
upperback 0.996034 1.62816 1.08835
thorax 1.87397 0.771235 2.62462
lowerneck -10.8691 -15.5263 -7.62686
upperneck 45.7768 -16.4839 -7.6681
head 19.3721 -8.04468 -5.25296
rclavicle -6.36111e-015 -8.39865e-015
rhumerus 39.4925 31.1161 -4.39698
rradius 106.815
rwrist -47.9328
rhand -46.1006 4.61959
rfingers 7.12502
rthumb -18.8424 -24.4878
lclavicle -6.36111e-015 -8.39865e-015
lhumerus 63.9482 -29.5768 2.91092
lradius 108.687
lwrist 60.6197
lhand -55.2284 -16.7918
lfingers 7.12502
lthumb -27.5986 11.2043
rfemur -61.9614 2.99218 19.8464
rtibia 68.1466
rfoot 20.4162 12.9851
rtoes -40.5247
lfemur -63.1415 -8.22751 -22.0618
ltibia 73.1744
lfoot 25.769 -7.23687
ltoes 26.5686
1254
root 7.3978 9.13661 10.4722 91.1652 1.46835 4.56936
lowerback -1.56061 1.18682 -2.59482
upperback 1.03925 1.62285 1.08487
thorax 1.83796 0.768506 2.61819
lowerneck -10.7759 -15.4986 -7.92223
upperneck 45.8268 -16.4433 -7.45728
head 19.4676 -8.04058 -5.11539
rclavicle -2.38542e-014 -6.95746e-016
rhumerus 39.6674 31.0923 -4.34269
rradius 107.106
rwrist -48.1677
rhand -46.4038 4.0876
rfingers 7.12502
rthumb -19.134 -24.9912
lclavicle -2.38542e-014 -6.95746e-016
lhumerus 63.8198 -29.4976 3.02116
lradius 108.862
lwrist 60.4779
lhand -55.2717 -16.3162
lfingers 7.12502
lthumb -27.64 11.6733
rfemur -62.4164 2.59274 20.0756
rtibia 69.149
rfoot 20.5924 13.0709
rtoes -40.5464
lfemur -63.4152 -7.85124 -22.3159
ltibia 74.2098
lfoot 25.3432 -7.33306
ltoes 26.51
1255
root 7.39906 9.13989 10.475 91.0113 1.47932 4.53821
lowerback -1.41165 1.18457 -2.58051
upperback 1.08588 1.61581 1.08321
thorax 1.80307 0.765022 2.60523
lowerneck -10.6997 -15.4536 -8.22626
upperneck 45.8844 -16.387 -7.21931
head 19.5793 -8.02807 -4.96459
rclavicle 9.54166e-015 -7.20594e-015
rhumerus 39.83 31.0771 -4.27775
rradius 107.397
rwrist -48.339
rhand -46.7154 3.50804
rfingers 7.12502
rthumb -19.4336 -25.5408
lclavicle 9.54166e-015 -7.20594e-015
lhumerus 63.6651 -29.4062 3.15693
lradius 109.014
lwrist 60.4251
lhand -55.2808 -15.8266
lfingers 7.12502
lthumb -27.6487 12.1616
rfemur -62.8647 2.2067 20.3061
rtibia 70.1616
rfoot 20.5688 13.1429
rtoes -40.4007
lfemur -63.696 -7.47067 -22.5576
ltibia 75.2987
lfoot 24.7352 -7.38336
ltoes 26.3241
1256
root 7.40046 9.14249 10.4761 90.8498 1.4965 4.50469
lowerback -1.26102 1.1806 -2.5576
upperback 1.13364 1.60631 1.0817
thorax 1.76877 0.760394 2.58755
lowerneck -10.6417 -15.4046 -8.51141
upperneck 45.9513 -16.3268 -6.99047
head 19.6977 -8.01234 -4.82195
rclavicle -1.27222e-014 -1.85367e-014
rhumerus 39.9861 31.0675 -4.19508
rradius 107.693
rwrist -48.4164
rhand -47.0446 2.86173
rfingers 7.12502
rthumb -19.7502 -26.1549
lclavicle -1.27222e-014 -1.85367e-014
lhumerus 63.5048 -29.3018 3.29216
lradius 109.145
lwrist 60.4643
lhand -55.2661 -15.3774
lfingers 7.12502
lthumb -27.6346 12.613
rfemur -63.3314 1.82633 20.5416
rtibia 71.1938
rfoot 20.4786 13.2307
rtoes -40.2451
lfemur -63.9813 -7.08529 -22.7901
ltibia 76.4288
lfoot 23.967 -7.38577
ltoes 26.204
1257
root 7.40204 9.14403 10.4743 90.6865 1.52015 4.4745
lowerback -1.11302 1.1726 -2.52423
upperback 1.18008 1.59138 1.0792
thorax 1.73522 0.753212 2.56295
lowerneck -10.5941 -15.3695 -8.74191
upperneck 46.0223 -16.2782 -6.81987
head 19.8024 -8.00097 -4.71471
rclavicle -6.36111e-015 1.48592e-014
rhumerus 40.1383 31.0588 -4.10073
rradius 107.992
rwrist -48.3861
rhand -47.3885 2.15589
rfingers 7.12502
rthumb -20.0807 -26.8264
lclavicle -6.36111e-015 1.48592e-014
lhumerus 63.3575 -29.191 3.40651
lradius 109.261
lwrist 60.5686
lhand -55.2419 -15.1096
lfingers 7.12502
lthumb -27.6115 12.8845
rfemur -63.8152 1.45192 20.7784
rtibia 72.2484
rfoot 20.3375 13.3051
rtoes -40.0459
lfemur -64.2825 -6.70525 -23.0101
ltibia 77.6006
lfoot 23.0388 -7.34208
ltoes 26.1732
